# 3ds Max Wavefront OBJ Exporter v0.97b - (c)2007 guruware
# File Created: 01.01.2017 18:50:24

#
# object Box001
#

v  -3.9230 0.0000 2.7798
v  -3.9230 0.0000 -2.5736
v  4.1072 0.0000 -2.5736
v  4.1072 0.0000 2.7798
v  -3.9230 21.1909 2.7798
v  4.1072 21.1909 2.7798
v  4.1072 21.1909 -2.5736
v  -3.9230 21.1909 -2.5736
# 8 vertices

vn 0.0000 -1.0000 -0.0000
vn 0.0000 1.0000 -0.0000
vn 0.0000 0.0000 1.0000
vn 1.0000 0.0000 -0.0000
vn 0.0000 0.0000 -1.0000
vn -1.0000 0.0000 -0.0000
# 6 vertex normals

vt 0.0000 0.0000 0.0000
vt 1.0000 0.0000 0.0000
vt 0.0000 1.0000 0.0000
vt 1.0000 1.0000 0.0000
vt 0.0000 0.0000 0.0000
vt 1.0000 0.0000 0.0000
vt 0.0000 1.0000 0.0000
vt 1.0000 1.0000 0.0000
vt 0.0000 0.0000 0.0000
vt 1.0000 0.0000 0.0000
vt 0.0000 1.0000 0.0000
vt 1.0000 1.0000 0.0000
# 12 texture coords

g Box001
f 1/10/1 2/12/1 3/11/1 
f 3/11/1 4/9/1 1/10/1 
f 5/9/2 6/10/2 7/12/2 
f 7/12/2 8/11/2 5/9/2 
f 1/5/3 4/6/3 6/8/3 
f 6/8/3 5/7/3 1/5/3 
f 4/1/4 3/2/4 7/4/4 
f 7/4/4 6/3/4 4/1/4 
f 3/5/5 2/6/5 8/8/5 
f 8/8/5 7/7/5 3/5/5 
f 2/1/6 1/2/6 5/4/6 
f 5/4/6 8/3/6 2/1/6 
# 12 faces

