# 3ds Max Wavefront OBJ Exporter v0.97b - (c)2007 guruware
# File Created: 27.10.2016 10:54:06

#
# object Box001
#

v  15.0000 0.0000 12.5000
v  15.0000 0.0000 -12.5000
v  25.0000 0.0000 -12.5000
v  25.0000 0.0000 12.5000
v  25.0000 8.5670 12.5000
v  15.0000 8.5670 12.5000
v  25.0000 8.5670 -12.5000
v  15.0000 8.5670 -12.5000
v  14.5000 0.9102 -0.2532
v  14.5000 7.6568 -0.2670
v  14.5000 7.6568 -11.5898
v  14.5000 0.9102 -11.5898
v  25.0000 10.0000 12.5000
v  15.0000 10.0000 12.5000
v  25.0000 10.0000 -12.5000
v  15.0000 10.0000 -12.5000
v  14.0000 10.0000 12.5000
v  14.0000 10.0000 -12.5000
v  14.0000 8.5670 -12.5000
v  14.0000 8.5670 12.5000
v  15.0000 0.6292 11.8708
v  15.0000 0.6292 0.0284
v  15.0000 0.6292 -11.8708
v  15.0000 7.9379 11.8708
v  15.0000 7.9379 -11.8708
v  15.0000 7.9379 0.0135
v  14.5000 0.9102 11.5898
v  14.5000 7.6568 11.5898
v  14.5000 7.6568 0.2951
v  14.5000 0.9102 0.3089
v  15.0000 0.9102 -0.2532
v  15.0000 0.9102 -11.5898
v  15.0000 7.6568 -0.2670
v  15.0000 7.6568 -11.5898
v  15.0000 7.6568 11.5898
v  15.0000 0.9102 11.5898
v  15.0000 7.6568 0.2951
v  15.0000 0.9102 0.3089
# 38 vertices

vn 0.0000 -1.0000 -0.0000
vn 0.0000 0.0000 1.0000
vn 1.0000 0.0000 -0.0000
vn 0.0000 0.0000 -1.0000
vn -1.0000 0.0000 -0.0000
vn 0.0000 1.0000 -0.0000
vn 0.0000 0.0020 1.0000
vn 0.0000 -0.0020 -1.0000
# 8 vertex normals

vt 1.0000 0.0000 0.0000
vt 1.0000 1.0000 0.0000
vt 0.0000 1.0000 0.0000
vt 0.0000 0.0000 0.0000
vt 1.0000 0.8567 0.0000
vt 0.0000 0.8567 0.0000
vt 0.5012 0.0000 0.0000
vt 0.5006 0.8567 0.0000
vt -0.1000 1.0000 0.0000
vt -0.1000 0.0000 0.0000
# 10 texture coords

g Box001
f 1/1/1 2/2/1 3/3/1 4/4/1 
f 4/1/2 5/5/2 6/6/2 1/4/2 
f 3/1/3 7/5/3 5/6/3 4/4/3 
f 2/1/4 8/5/4 7/6/4 3/4/4 
f 9/7/5 10/8/5 11/6/5 12/4/5 
f 13/2/2 14/3/2 6/6/2 5/5/2 
f 15/2/3 13/3/3 5/6/3 7/5/3 
f 16/2/4 15/3/4 7/6/4 8/5/4 
f 17/2/5 18/3/5 19/6/5 20/5/5 
f 14/4/6 13/1/6 15/2/6 16/3/6 
f 14/4/6 16/3/6 18/9/6 17/10/6 
f 16/3/4 8/6/4 19/6/4 18/3/4 
f 8/6/1 6/5/1 20/5/1 19/6/1 
f 6/5/2 14/2/2 17/2/2 20/5/2 
f 2/4/5 1/1/5 21/1/5 22/7/5 
f 2/4/5 22/7/5 23/4/5 
f 1/1/5 6/5/5 24/5/5 21/1/5 
f 6/5/5 8/6/5 25/6/5 26/8/5 
f 6/5/5 26/8/5 24/5/5 
f 8/6/5 2/4/5 23/4/5 25/6/5 
f 27/1/5 28/5/5 29/8/5 30/7/5 
f 23/4/5 22/7/5 31/7/5 32/4/5 
f 22/7/5 26/8/5 33/8/5 31/7/5 
f 26/8/5 25/6/5 34/6/5 33/8/5 
f 25/6/5 23/4/5 32/4/5 34/6/5 
f 21/1/5 24/5/5 35/5/5 36/1/5 
f 24/5/5 26/8/5 37/8/5 35/5/5 
f 26/8/5 22/7/5 38/7/5 37/8/5 
f 22/7/5 21/1/5 36/1/5 38/7/5 
f 32/4/1 31/7/1 9/7/1 12/4/1 
f 31/7/7 33/8/7 10/8/7 9/7/7 
f 33/8/6 34/6/6 11/6/6 10/8/6 
f 34/6/4 32/4/4 12/4/4 11/6/4 
f 36/1/2 35/5/2 28/5/2 27/1/2 
f 35/5/6 37/8/6 29/8/6 28/5/6 
f 37/8/8 38/7/8 30/7/8 29/8/8 
f 38/7/1 36/1/1 27/1/1 30/7/1 
# 35 polygons - 2 triangles

